<svg width="200" height="200" viewBox="0 0 200 200" fill="none" xmlns="http://www.w3.org/2000/svg">
<path opacity="0.15" d="M100 195.833C141.421 195.833 175 191.356 175 185.833C175 180.311 141.421 175.833 100 175.833C58.5786 175.833 25 180.311 25 185.833C25 191.356 58.5786 195.833 100 195.833Z" fill="#45413C"/>
<path d="M120 39.5833H79.5834C42.0834 39.5833 11.6667 67.5 11.6667 105C11.6667 146.667 45.8334 183.333 87.5 183.333H112.5C154.167 183.333 188.333 146.667 188.333 105C188.333 67.5 157.917 39.5833 120 39.5833Z" fill="#FF75A0"/>
<path d="M112.5 160.833H87.5C49.5833 160.833 18.3333 130.833 12.9167 93.75C12.5 97.0833 12.0833 100.833 12.0833 104.583C11.6667 146.667 45.8333 183.333 87.5 183.333H112.5C154.167 183.333 188.333 146.667 188.333 105C188.333 101.25 187.917 97.5 187.5 94.1667C181.667 130.833 150.417 160.833 112.5 160.833Z" fill="#F25287"/>
<path d="M120 39.5833H79.5834C42.0834 39.5833 11.6667 67.5 11.6667 105C11.6667 146.667 45.8334 183.333 87.5 183.333H112.5C154.167 183.333 188.333 146.667 188.333 105C188.333 67.5 157.917 39.5833 120 39.5833Z" stroke="#45413C" stroke-miterlimit="10" stroke-linecap="round" stroke-linejoin="round"/>
<path d="M100.833 66.25C115 69.5833 129.167 77.5 136.667 82.0833C139.167 83.75 142.083 81.6667 141.667 78.75C140.417 72.0833 137.5 62.0833 129.583 55.4167C127.917 54.1667 127.917 51.25 130 50.4167C135 47.5 141.667 45.8333 147.083 44.5833C150 44.1667 150.833 40 147.917 38.3333C141.667 35 132.5 31.6667 122.917 33.3333C111.667 35 105.417 40 102.5 43.3333C101.25 44.5833 99.1667 44.5833 97.5 43.3333C94.5833 40 88.3333 35 77.0833 33.3333C67.0833 32.0833 57.9167 35.4167 52.0833 38.3333C49.1667 39.5833 50 43.75 52.9167 44.5833C58.3333 45.8333 65.4167 47.5 70 50.4167C72.0833 51.6667 72.0833 54.1667 70.4167 55.4167C62.5 62.0833 59.1667 72.0833 58.3333 78.75C57.9167 81.6667 60.8333 83.75 63.3333 82.0833C70.8333 77.5 85 69.5833 99.1666 66.25C99.5833 66.25 100.417 66.25 100.833 66.25Z" fill="#6DD627"/>
<path d="M52.9167 44.5833C54.5833 45 56.25 45.4167 57.9167 45.8333C63.3333 43.75 70 42.5 77.0833 43.3333C88.3333 45 94.5833 50 97.5 53.3333C98.75 54.5833 100.833 54.5833 102.5 53.3333C105.417 50 111.667 45 122.917 43.3333C130 42.5 136.667 43.75 142.083 45.8333C143.75 45.4167 145.417 45 147.083 44.5833C150 44.1667 150.833 40 147.917 38.3333C141.667 35 132.5 31.6667 122.917 33.3333C111.667 35 105.417 40 102.5 43.3333C101.25 44.5833 99.1667 44.5833 97.5 43.3333C94.5833 40 88.3333 35 77.0833 33.3333C67.0833 32.0833 57.9167 35.4167 52.0833 38.3333C49.1667 40 50 44.1667 52.9167 44.5833Z" fill="#9CEB60"/>
<path d="M100.833 66.25C115 69.5833 129.167 77.5 136.667 82.0833C139.167 83.75 142.083 81.6667 141.667 78.75C140.417 72.0833 137.5 62.0833 129.583 55.4167C127.917 54.1667 127.917 51.25 130 50.4167C135 47.5 141.667 45.8333 147.083 44.5833C150 44.1667 150.833 40 147.917 38.3333C141.667 35 132.5 31.6667 122.917 33.3333C111.667 35 105.417 40 102.5 43.3333C101.25 44.5833 99.1667 44.5833 97.5 43.3333C94.5833 40 88.3333 35 77.0833 33.3333C67.0833 32.0833 57.9167 35.4167 52.0833 38.3333C49.1667 39.5833 50 43.75 52.9167 44.5833C58.3333 45.8333 65.4167 47.5 70 50.4167C72.0833 51.6667 72.0833 54.1667 70.4167 55.4167C62.5 62.0833 59.1667 72.0833 58.3333 78.75C57.9167 81.6667 60.8333 83.75 63.3333 82.0833C70.8333 77.5 85 69.5833 99.1667 66.25C99.5833 66.25 100.417 66.25 100.833 66.25Z" stroke="#45413C" stroke-miterlimit="10" stroke-linecap="round" stroke-linejoin="round"/>
<path d="M93.3334 54.5833C93.3334 54.5833 92.0834 38.3333 103.333 26.6667C104.583 25.4167 105.833 25 107.5 25C109.167 25 110.417 25.4167 111.667 25.8333C114.583 27.0833 115 30.4167 113.333 32.9167C107.917 40.4167 104.583 55 104.583 55" fill="#6DD627"/>
<path d="M93.3334 54.5833C93.3334 54.5833 92.0834 38.3333 103.333 26.6667C104.583 25.4167 105.833 25 107.5 25C109.167 25 110.417 25.4167 111.667 25.8333C114.583 27.0833 115 30.4167 113.333 32.9167C107.917 40.4167 104.583 55 104.583 55" stroke="#45413C" stroke-miterlimit="10" stroke-linecap="round" stroke-linejoin="round"/>
</svg>
